<svg xmlns="http://www.w3.org/2000/svg" version="1.1" xmlns:xlink="http://www.w3.org/1999/xlink" xmlns:svgjs="http://svgjs.dev/svgjs" width="1000" height="1125" viewBox="0 0 1000 1125"><g transform="matrix(1,0,0,1,0,0)"><svg viewBox="0 0 320 360" data-background-color="#ffffff" preserveAspectRatio="xMidYMid meet" height="1125" width="1000" xmlns="http://www.w3.org/2000/svg" xmlns:xlink="http://www.w3.org/1999/xlink"><g id="tight-bounds" transform="matrix(1,0,0,1,0,0)"><svg viewBox="0 0 320 360" height="360" width="320"><g><svg></svg></g><g><svg viewBox="0 0 320 360" height="360" width="320"><g><path xmlns="http://www.w3.org/2000/svg" d="M165.217 303.356c-1.404-1.755-2.809-0.702-2.808-1.755-8.426 2.106-24.223-3.511-30.894-2.809 1.404-2.106-2.106-1.755-2.106-3.159-1.404 2.106-2.809 0-4.915 0.702-2.106-5.266-10.532-1.404-11.585-8.075-4.915 0-6.67-2.809-11.586-5.617 0.351-0.351 0.702-0.351 1.054-0.702-2.457-0.351-2.457-1.755-4.564-1.755l0.702-1.405c-3.862-0.702-5.266-6.67-10.883-8.776-1.755-0.351-5.617-6.319-7.723-7.724-1.053-0.702-2.809-0.702-0.352-1.053-0.351-0.351-0.351-1.053 0-1.404-2.457-0.702-2.809-2.809-5.968-3.862-0.351-1.053 0.702-1.755 0-2.457-0.702-0.351-1.755 0.351-2.457 0-0.351 6.319 6.67 7.021 8.777 12.287-0.702-0.702-1.755-2.809-2.458-1.404-0.351 1.053 2.809 4.915 2.809 2.808-1.053 0.702-1.404-1.053-0.703-1.404 1.053 1.755 3.16 1.404 3.16 2.809-1.053 1.053-2.457-1.053-2.106 0.702 3.16 1.755 2.809 3.511 4.563 5.968-1.404-1.755-1.755 1.404-3.159 0-0.351-5.266-6.319-4.213-6.319-9.479-0.702-1.755-1.404-0.351-2.458-1.053 1.404-1.404-4.213-6.319-4.213-4.564-1.755-2.106-0.702-2.809-1.053-4.213-1.404-0.351-0.351 1.404-1.404 0.351 1.404-2.457-1.755-5.617-3.862-8.074l1.405-0.702c-2.457-1.404-2.809-4.213-4.564-7.373-2.106 3.16 4.213 10.181 3.159 11.585 0 0.351 2.457 3.16 3.16 4.564 2.809 4.915 4.915 10.883 8.777 13.692-0.702-0.351-0.351-2.457 0.702-1.404 0 1.053-0.702 2.106-0.702 3.159 2.106 2.106 3.862 3.862 5.968 5.968-4.564-2.809-9.128-5.617-12.288-9.83 1.755-0.351 3.511 2.809 4.915 2.458-3.511-2.809-2.457-3.862-3.861-7.372-1.404-1.053 0.351 1.404-1.054 1.755-4.564-4.213-8.075-6.67-10.181-10.532 0.351-0.351 0.702-0.702 0.703-1.404-0.351-0.351-0.351-0.351-0.703-0.702 2.106 2.106 2.809 3.862 5.266 4.212-1.053-1.053 0-1.404-1.404-2.457-0.702-1.404-1.755 0.702-2.457-0.351 0.702-1.053 0-2.457 0-3.511-0.702 0-1.404 0-1.756-1.053-0.702-0.351-1.053 0-1.404 0.702-0.351-0.351-0.351-1.053-0.702-1.404v-0.351c-0.351-0.351-0.702-1.053-1.053-1.405-2.809-7.372-4.564-17.202-8.426-23.521 1.053-4.213-0.702-12.638-1.755-14.745 1.053-1.755 0.351-9.83-0.351-11.234-1.755 0.702 0.351 4.564-1.404 5.617-1.755-7.723 1.053-16.5 0.351-23.521 0.702 0 1.404 0 1.404-0.351-1.053-1.053 0.702-3.16 0.351-5.617 1.404-3.16-3.16 4.564-3.16 7.723-0.351 0.702-1.755 0-1.404 1.756 0 2.457 0.702 7.372-0.702 10.883-0.702 0-0.702-0.702-1.404-0.351-0.351 1.755-0.702 3.862-1.053 5.617-0.351-0.702-0.702-1.755-0.703-2.107-1.755-8.777 0-18.958-0.702-26.33 1.404 0 1.404-2.106 2.458-2.808-0.351 2.809-1.053 6.319 0.702 7.021 1.404-13.692 4.213-28.787 10.532-43.532 4.564-10.883 11.234-21.766 19.308-30.543 0.702 1.053-0.351 3.511 0 4.564 7.021-7.372 11.585-16.149 19.309-21.064 0.351 1.755-3.16 3.16-3.16 4.564 3.16-3.16 4.213-2.106 7.724-3.159 1.053-1.404-1.404 0-1.756-1.405 2.106-1.404 3.511-3.16 4.915-4.212 0 0.351-0.351 0.351-0.351 0.702 3.862-1.053 4.213-3.16 7.022-3.862-0.351-0.351-1.053-0.702-2.107-0.351 0.702-0.351 1.755-1.053 2.809-1.404-0.351 0-0.351 0.351-0.702 0.351 2.106-1.053 0.351 0.351 0.351 1.053 0.351 0 0.702-0.351 0.702-0.351-2.106 1.404-3.511 2.106-4.213 4.564 1.053-0.702 1.404 0 2.809-1.054 1.404-0.702-0.351-1.755 0.702-2.457 1.053 0.702 2.457 0.351 3.51 0.351 0-0.702 0.351-1.404 1.054-1.755 0.351-0.702 0-1.053-0.352-1.053 0.351-0.351 0.702-0.351 1.405-0.703 0 0 0.351 0 0.351 0.351 5.968-2.809 12.638-5.266 18.957-7.372 3.862-0.351 8.777-0.351 10.883-2.808-0.702 0-1.404 0.351-1.755 0 0.351 0 1.053-0.351 1.404-0.351 0.702 0.702 1.755 0 0.702 1.404 0.351 0 0.351 0 0.703-0.351 0 0.351 0 0.351 0.351 0.702 0.351 0 0.702-0.351 1.053-1.053 0.351 0 0.702 0 1.053-0.351l-0.351 0.351c2.809-0.702 5.266-0.351 9.128-1.054 0-0.351 0-0.702 0-1.053 0.702 0 1.053-0.351 1.755-0.351v0.351c1.404-0.702 2.809 0.702 2.808 0 0.351 0 0.351 0 0.703 0 0 0.702-0.351 1.053-0.351 1.405 1.755 0 2.809 0 3.51-1.054-0.351-0.351-0.702-0.351-1.053-0.351 0.702 0 1.404-0.351 2.106-0.702 1.053 0.351 1.404 0.702 1.405 2.107 1.755-3.16 7.372 0.702 9.829 0 1.053 0 0.702-1.404 1.405-2.107 0.351 0 0.702 0 1.053 0 1.755 1.404 4.213 2.809 7.372 3.16-2.809-0.702 0.351-1.053 0.702-1.405-0.702 0-0.702-0.351-0.702-0.702 1.053 0 2.106 0.351 3.16 0.351 0 0.702 0.351 1.053 1.053 1.054 0.702 0 0.702-0.351 0.702-1.054 1.053 0 1.755 0 2.809 0.351-0.351 1.404 1.755 1.755 2.457 2.809-2.809-0.702-5.968-1.755-7.021 0 11.234 2.457 23.521 5.968 35.457 11.936 0 0 0 0 0 0.351h0.352c2.106 1.053 4.213 2.106 6.319 3.16 1.404 0.702 2.457 1.404 3.861 2.457 0 0.351 0 0.702 0.703 0.702h0.351c1.404 1.053 2.809 1.755 4.212 2.809 1.404 2.106 2.809 4.915 5.266 4.213 5.266 8.075 10.883 11.234 15.447 19.659 0.351-1.404 1.404 3.16 3.16 3.511-2.809-0.351 1.755 1.755-1.053 1.404 2.457 2.457 3.16 3.511 3.51 6.319-0.702-1.404-1.053-1.755-1.404-0.351-0.351 2.106 2.457-0.351 3.511 1.756-2.106 0-1.404 1.404-1.054 3.159 1.053-1.053 0.702-2.106 1.756-1.755 1.404 1.404-0.702 1.755-0.351 2.809 1.053-1.404 1.404-0.702 2.808 0-1.755 0.351 1.053 2.809-1.053 1.755 1.404 1.755 1.755 2.809 1.053 4.564-1.404-2.106-0.351-3.511-2.457-3.16 4.213 3.511 2.106 11.585 7.021 12.287-3.16 0.702 0 2.106-1.755 2.458 2.106 0.702 1.053 3.511 3.51 4.213-0.351 1.755-1.053 2.809-1.404 4.563 1.053 1.404 1.404 4.213 3.16 4.564-1.053 1.053-0.351 3.862-1.404 4.915 1.404-0.702 2.106-0.702 3.159 0.702-1.755 1.404-0.351 2.809-1.404 3.16 3.16 8.075-0.702 24.575 1.053 30.894-2.106-1.053-1.404 2.457-2.808 2.457 2.457 1.053 0.351 2.809 1.404 4.564-4.915 2.809 0 10.532-6.67 12.287 0.702 4.915-2.106 7.021-4.213 12.288-0.351-0.351-0.351-0.702-0.702-1.054-0.351 2.457-1.755 2.809-1.054 4.915l-1.404-0.702c0 3.862-5.968 5.968-7.372 11.936-0.351 1.755-5.617 6.319-7.022 8.777-0.702 1.053-0.351 2.809-1.053 0.351-0.351 0.351-1.053 0.351-1.404 0.351-0.351 2.457-2.457 3.16-3.16 6.319-0.702 0.351-1.755-0.702-2.457 0.351 0 0.702 0.702 1.755 0.351 2.458 6.319-0.351 6.319-7.723 11.234-10.181-0.351 1.053-2.457 2.106-1.053 2.808 1.053 0 4.213-3.511 2.457-3.159 1.053 0.702-1.053 1.404-1.404 1.053 1.755-1.404 1.053-3.16 2.458-3.511 1.053 0.702-1.053 2.457 1.053 2.107 1.404-3.16 3.16-3.511 5.266-5.266-1.404 1.404 1.755 1.755 0.351 3.159-5.266 1.053-3.511 7.021-8.777 7.724-1.404 1.053-0.351 1.404-0.702 2.457-1.755-1.053-5.617 4.915-4.213 4.564-1.755 1.755-2.809 1.053-4.212 1.404-0.351 1.404 1.404 0.351 0.702 1.405-2.457-1.053-5.617 2.457-7.724 4.915l-1.053-1.054c-1.053 2.809-3.862 3.16-7.021 5.266 3.511 1.755 9.479-5.617 11.234-4.564 0.351 0 3.16-2.809 4.213-3.861 4.564-3.511 10.181-6.319 12.287-10.181-0.351 0.702-2.457 0.702-1.404-0.351 1.053-0.351 2.106 0.351 3.159 0.351 5.617-7.723 12.638-14.043 17.905-23.17 0.351-0.351 0.702-1.053 1.053-1.756-0.702 2.106-1.755 3.862-2.458 5.968-5.617 3.862-7.723 15.096-14.393 16.851 0.351 3.862-3.16 4.915-4.915 9.479-1.053 1.404-1.755-1.053-2.809 0.702 1.053 4.915-8.777 4.564-8.425 9.128-0.702 0.351-1.755 0.702-2.458 1.404h-0.351c-0.351 0.351-0.351 0.351-0.702 0.702-1.755 1.053-3.16 2.106-4.564 3.16-4.915 2.809-11.585 4.915-16.851 7.723v-0.351c-1.404 0.702-3.16 0.351-2.809 1.756-1.053 0.702-2.106 1.404-3.159 2.106-0.351 0-0.351 0-0.702 0 0 0-0.351-0.351-0.702-0.351-0.702 0-0.702 0-1.054 0.351-4.564 0.351-10.532 2.457-12.287 3.862-1.755-1.053-9.83 0.702-11.234 1.404 0.702 1.053 2.809 0 4.564 0-1.053 0.351-2.106 0.702-2.458 1.404-0.351 0-0.351 0-0.702 0-0.351-1.053-1.404 0-1.755-0.351h0.351c-0.351-1.404-1.404-2.106-3.16-1.755 0 0.702 0 1.053-0.351 1.755 0.702 0 2.809-1.053 2.809 0-0.351 0-0.351 0.351 0 0.351-0.702 0.702-1.755 0.702-2.458 1.054-1.404 0-3.16 0-4.563 0-0.351-0.351-0.702-0.351-1.405-0.703-0.351 0.351-1.053 0.351-1.404 0.703-2.106 0-4.564 0.351-6.319 0.702 0-0.702 0-1.404-0.702-1.405-1.053 1.404-3.16-0.351-5.617 0.352-2.457-0.702 1.404 1.053 4.915 1.755-0.351 0.351-0.702 0.702-1.756 1.053M116.068 308.271c-4.915-4.564-15.096-6.67-16.851-10.181-2.809-0.351-7.021-5.617-10.532-6.319 1.755 0 0.351-1.053 0-1.755-0.702 0.702-1.404 1.053-2.106 1.053 0-2.809-2.809-4.564-5.266-6.319 1.755 1.053 3.16 1.755 5.266 2.106 0-0.702 0-1.404 0.702-1.404 2.457 2.457 5.266 4.915 8.425 7.372 4.213 3.862 25.979 13.692 29.841 15.447 0 0-0.702 1.404-0.351 1.404 1.755 1.053 3.16-1.053 3.511 1.404-5.617 0.702-7.723-3.16-12.639-2.808M277.909 226.824v0.351 0c-0.351 0 0-0.351 0-0.351M136.079 64.281c-0.351 0.351-0.702 0.351-0.702 0.351 0-0.351 0.351-0.351 0.702-0.351M129.409 66.036c0 0.351 0 0.351 0 0 0 0.351 0 0.351 0 0 0 0.351 0 0 0 0M106.238 73.408v0c0.351-0.351 0.351-0.351 0.703-0.351-0.351 0-0.702 0.351-0.703 0.351M162.409 61.823c-0.702 0-1.053 0-1.404-0.351 0.351 0 0.702 0 1.053 0h0.351c0 0 0 0 0 0.351M168.728 62.525c-0.351-0.351-1.404-0.702-2.457-0.702 0-0.351 0.351-0.702 0.351-0.702 0.351 0 0.702 0 1.053 0 0 0 0.351 0 0.351 0.351 0 0 0 0 0-0.351 0.351 0 0.351 0 0.702 0 0.351 0.702 0.702 1.053 0 1.404M180.313 63.579c-1.755 0.351-2.809-0.351-4.564-1.405 1.053 0 2.457 0.351 3.511 0.702 0.351 0 0.702 0.351 1.053 0.703M305.292 113.43c-0.702 0.351-1.053 0.351-1.755-1.053-5.617-11.936-15.798-29.138-30.543-43.532-14.394-14.745-33.702-26.681-51.255-33.001 1.053 0.351 2.457 1.053 1.755 1.756-15.447-5.968-30.192-9.479-44.234-10.883-37.915-5.968-77.585 2.106-108.128 21.766 0.351 0.702 0.351 1.053-0.702 1.755-11.234 7.021-27.032 19.309-39.671 35.458-12.638 16.149-22.468 36.511-26.681 54.766 0.351-1.053 0.702-2.809 1.405-2.107-9.128 36.16-6.67 67.053 5.968 93.735 0.702-0.702-1.755-4.213 0.351-3.862 1.404 3.862 3.16 8.075 5.266 11.936 2.457 5.617 5.266 12.989 9.128 14.745-9.83-19.309-16.5-41.426-17.203-61.085 1.404 2.809 1.053 8.777 3.16 11.234 0.702-13.34-2.457-31.245 2.106-43.883-1.053 6.67-1.755 15.798-1.053 24.925 0 6.67 3.16 25.277 5.266 27.032-0.351-0.351-0.351-2.106 0-2.106 1.053 2.106-1.404 3.16 0.351 3.511 0-0.702 0.351-0.702 0.702-0.703 3.511 7.723 8.075 19.66 11.585 25.628 4.213 7.723 9.83 14.745 16.149 21.064 0 0.351 0.351 0.351 0.352 0.702 0.702 1.755 3.16 3.862 3.861 5.266 0.351 0.702-0.351 1.755 0 2.458 5.266 9.83 12.989 19.66 22.468 27.383 5.968 7.021 15.447 14.394 27.032 20.713 11.234 5.968 24.223 10.883 36.16 13.691 8.426 2.106 18.606 2.457 24.926 3.862 8.426 1.755 23.17-0.702 30.542-2.107 44.234-6.67 88.117-36.862 110.235-80.393 22.819-43.883 22.117-97.596 2.457-138.671" fill="#4790fc" fill-rule="nonzero" stroke="none" stroke-width="1" stroke-linecap="butt" stroke-linejoin="miter" stroke-miterlimit="10" stroke-dasharray="" stroke-dashoffset="0" font-family="none" font-weight="none" font-size="none" text-anchor="none" style="mix-blend-mode: normal" data-fill-palette-color="tertiary"></path></g><g transform="matrix(1,0,0,1,80,108.89513840988575)"><svg viewBox="0 0 160 142.2097231802285" height="142.2097231802285" width="160"><g><svg viewBox="0 0 160 142.2097231802285" height="142.2097231802285" width="160"><g><svg viewBox="0 0 160 142.2097231802285" height="142.2097231802285" width="160"><g transform="matrix(1,0,0,1,0,85.95418575891817)"><svg viewBox="0 0 160 56.25553742131033" height="56.25553742131033" width="160"><g id="textblocktransform"><svg viewBox="0 0 160 56.25553742131033" height="56.25553742131033" width="160" id="textblock"><g><svg viewBox="0 0 160 56.25553742131033" height="56.25553742131033" width="160"><g transform="matrix(1,0,0,1,0,0)"><svg width="160" viewBox="-1.5099999904632568 -57.7599983215332 209.4099884033203 73.62999725341797" height="56.25553742131033" data-palette-color="#4790fc"><path d="M38.43-49.02L38.43-49.02Q37.74-48.05 36.99-47.19 36.23-46.34 35.11-45.85L35.11-45.85Q34.52-42.48 34.16-39.06 33.79-35.64 33.37-32.23 32.96-28.81 32.45-25.42 31.93-22.02 31.05-18.7L31.05-18.7 31.1-18.12Q31.2-17.14 30.86-16.26 30.52-15.38 30.57-14.36L30.57-14.36Q29.88-12.65 29.39-10.57 28.91-8.5 28.81-6.64L28.81-6.64Q28.32-5.81 28-4.83 27.69-3.86 27.37-2.86 27.05-1.86 26.66-0.95 26.27-0.05 25.63 0.68L25.63 0.68Q25.49 1.81 25.07 2.81 24.66 3.81 24.15 4.79 23.63 5.76 23.17 6.71 22.71 7.67 22.51 8.74L22.51 8.74Q21.68 10.01 20.85 11.21 20.02 12.4 19.34 13.72L19.34 13.72Q18.7 14.01 18.24 14.38 17.77 14.75 17.33 15.06 16.89 15.38 16.33 15.63 15.77 15.87 14.99 15.87L14.99 15.87Q14.79 15.87 14.62 15.84 14.45 15.82 14.26 15.82L14.26 15.82Q13.57 15.28 12.89 14.77 12.21 14.26 11.43 13.87L11.43 13.87Q11.43 13.57 11.35 13.38 11.28 13.18 11.23 12.99 11.18 12.79 11.18 12.6 11.18 12.4 11.28 12.11L11.28 12.11Q10.84 11.82 10.28 11.06 9.72 10.3 9.72 9.77L9.72 9.77Q9.72 9.28 10.06 9.28L10.06 9.28Q9.96 8.79 9.74 8.33 9.52 7.86 9.52 7.37L9.52 7.37Q9.52 7.03 9.72 6.64L9.72 6.64Q9.18 5.37 8.74 4.03 8.3 2.69 8.15 1.27L8.15 1.27Q7.67 0.63 7.4-0.22 7.13-1.07 6.98-2 6.84-2.93 6.74-3.83 6.64-4.74 6.49-5.52L6.49-5.52Q6.45-5.81 6.25-6.47 6.05-7.13 6.05-7.37L6.05-7.37Q6.05-7.67 6.18-7.81 6.3-7.96 6.4-8.2L6.4-8.2Q5.81-10.55 5.44-12.94 5.08-15.33 4.76-17.72 4.44-20.12 4.03-22.49 3.61-24.85 2.88-27.15L2.88-27.15 2.88-27.59Q2.88-29.15 1.66-30.08L1.66-30.08Q1.9-30.81 1.9-31.3L1.9-31.3Q1.9-31.93 1.73-32.52 1.56-33.11 1.37-33.69 1.17-34.28 1.1-34.86 1.03-35.45 1.17-36.04L1.17-36.04Q0.63-36.62 0.29-37.3-0.05-37.99-0.59-38.48L-0.59-38.48-0.63-38.77Q-0.63-39.01-0.51-39.21-0.39-39.4-0.39-39.65L-0.39-39.65Q-0.39-39.99-0.56-40.23-0.73-40.48-0.95-40.67-1.17-40.87-1.34-41.06-1.51-41.26-1.51-41.5L-1.51-41.5Q-1.51-42.09-1.12-42.43-0.73-42.77-0.24-43.04 0.24-43.31 0.71-43.6 1.17-43.9 1.32-44.43L1.32-44.43Q1.71-44.34 2.1-44.31 2.49-44.29 2.88-44.09L2.88-44.09Q2.93-44.14 2.93-44.24L2.93-44.24Q2.93-44.38 2.47-44.51 2-44.63 1.86-44.82L1.86-44.82Q2.25-44.92 2.44-44.92L2.44-44.92Q3.42-44.92 4.32-44.43 5.22-43.95 6.05-43.41L6.05-43.41Q6.15-42.97 6.1-42.5 6.05-42.04 6.4-41.65L6.4-41.65Q6.35-41.41 6.37-41.21 6.4-41.02 6.4-40.82L6.4-40.82Q6.4-40.58 6.32-40.41 6.25-40.23 6.05-40.23L6.05-40.23Q6.4-39.65 6.52-38.82 6.64-37.99 6.76-37.11 6.88-36.23 7.08-35.4 7.28-34.57 7.81-33.94L7.81-33.94Q7.71-33.64 7.69-33.35 7.67-33.06 7.67-32.71L7.67-32.71Q7.67-31.15 8.06-29.64 8.45-28.13 8.45-26.56L8.45-26.56Q8.45-25.63 8.15-24.85L8.15-24.85Q8.15-24.41 8.45-24.15 8.74-23.88 8.84-23.44L8.84-23.44Q8.59-22.85 8.59-22.31L8.59-22.31Q8.59-21.19 9.03-20.19 9.47-19.19 9.47-18.12L9.47-18.12Q9.47-17.77 9.38-17.48 9.28-17.19 9.18-16.94L9.18-16.94Q9.62-16.5 9.64-15.82 9.67-15.14 10.06-14.7L10.06-14.7Q10.01-14.45 9.99-14.21 9.96-13.96 9.72-13.82L9.72-13.82Q9.96-13.48 9.99-12.92 10.01-12.35 10.4-12.26L10.4-12.26Q10.3-12.01 10.25-11.82 10.21-11.62 10.21-11.38L10.21-11.38Q10.21-10.84 10.35-10.4L10.35-10.4 10.64-9.52Q10.79-9.08 10.86-8.59 10.94-8.11 10.74-7.52L10.74-7.52Q10.94-7.23 11.06-6.84 11.18-6.45 11.28-6.03 11.38-5.62 11.57-5.3 11.77-4.98 12.16-4.88L12.16-4.88Q12.21-4.59 11.94-4.59 11.67-4.59 11.67-4.35L11.67-4.35Q11.67-3.96 11.96-3.39 12.26-2.83 12.5-2.59L12.5-2.59Q12.45-2.39 12.45-2.2L12.45-2.2 12.45-1.76Q12.45-1.07 12.65-0.37 12.84 0.34 13.01 1.05 13.18 1.76 13.28 2.44 13.38 3.13 13.18 3.71L13.18 3.71Q13.57 4.39 13.87 5.18 14.16 5.96 14.79 6.49L14.79 6.49Q14.79 7.32 15.14 8.08 15.48 8.84 16.02 9.52L16.02 9.52Q16.5 9.52 16.75 9.2 16.99 8.89 17.14 8.5 17.29 8.11 17.48 7.76 17.68 7.42 18.12 7.37L18.12 7.37Q18.16 6.88 18.38 6.57 18.6 6.25 18.82 5.91 19.04 5.57 19.21 5.18 19.38 4.79 19.34 4.2L19.34 4.2 19.87 4.05Q20.12 2.73 20.63 1.68 21.14 0.63 21.78-0.49L21.78-0.49 21.78-0.73Q21.78-1.22 21.92-1.56 22.07-1.9 21.97-2.44L21.97-2.44Q22.31-2.54 22.46-2.83 22.61-3.13 22.71-3.44 22.8-3.76 22.92-4.08 23.05-4.39 23.34-4.54L23.34-4.54 23.34-4.93Q23.29-5.37 23.41-5.79 23.54-6.2 23.34-6.64L23.34-6.64Q23.73-6.79 23.93-7.13 24.12-7.47 24.24-7.86 24.37-8.25 24.39-8.69 24.41-9.13 24.41-9.47L24.41-9.47Q24.76-9.91 24.9-10.52 25.05-11.13 25.15-11.77 25.24-12.4 25.42-12.99 25.59-13.57 25.98-14.01L25.98-14.01Q25.88-14.26 25.88-14.45L25.88-14.45 25.88-14.89Q25.88-15.82 26.17-16.58 26.46-17.33 26.71-18.21L26.71-18.21Q27.34-20.41 27.61-22.73 27.88-25.05 28.42-27.29L28.42-27.29Q28.47-27.54 28.61-28.08 28.76-28.61 28.91-29.17 29.05-29.74 29.17-30.2 29.3-30.66 29.3-30.81L29.3-30.81Q29.3-31.2 29.13-31.35 28.96-31.49 28.96-31.84L28.96-31.84Q29.25-32.28 29.35-32.96 29.44-33.64 29.49-34.4 29.54-35.16 29.52-35.86 29.49-36.57 29.49-37.11L29.49-37.11Q29.49-37.65 29.74-38.48 29.98-39.31 30.08-39.94L30.08-39.94Q30.32-41.6 30.4-43.24 30.47-44.87 30.57-46.53L30.57-46.53Q30.91-46.73 31.05-47.05 31.2-47.36 31.2-47.71L31.2-47.71Q31.2-48.24 31.08-48.73 30.96-49.22 30.96-49.76L30.96-49.76Q30.96-50 31.01-50.27 31.05-50.54 31.25-50.73L31.25-50.73Q31.2-51.07 31.18-51.42 31.15-51.76 30.91-52L30.91-52Q31.15-52.64 31.15-53.27L31.15-53.27Q31.15-53.86 31.03-54.44 30.91-55.03 30.91-55.66L30.91-55.66Q30.91-56.88 31.93-57.42L31.93-57.42 32.62-57.42Q33.11-57.42 33.59-57.47 34.08-57.52 34.62-57.76L34.62-57.76Q35.25-57.08 35.94-56.27 36.62-55.47 37.11-54.54 37.6-53.61 37.84-52.64 38.09-51.66 37.89-50.59L37.89-50.59Q38.09-50.2 38.13-49.8 38.18-49.41 38.43-49.02ZM28.27-22.22L28.47-22.41Q28.27-22.46 28.2-22.58 28.13-22.71 27.88-22.75L27.88-22.75 27.88-22.22 28.27-22.22ZM110.93-2.93L110.98-2.78Q110.98-2.39 110.71-2.25 110.44-2.1 110.59-1.56L110.59-1.56Q110.2-1.51 109.91-1.17 109.61-0.83 109.22-0.83L109.22-0.83Q108.98-0.83 108.83-1.07L108.83-1.07Q108.74-0.73 108.47-0.59 108.2-0.44 107.91-0.34 107.61-0.24 107.32-0.1 107.03 0.05 106.93 0.34L106.93 0.34 106.68 0.34Q106.1 0.34 105.78 0.83 105.46 1.32 105.02 1.32L105.02 1.32Q104.88 1.32 104.83 1.27L104.83 1.27Q104.58 1.32 104.63 1.59 104.68 1.86 104.49 1.95L104.49 1.95 104.24 1.95Q102.97 1.95 101.66 2.49 100.34 3.03 98.99 3.71 97.65 4.39 96.26 5 94.87 5.62 93.45 5.81L93.45 5.81Q93.16 6.1 92.74 6.27 92.33 6.45 91.84 6.54 91.35 6.64 90.89 6.76 90.42 6.88 90.08 7.18L90.08 7.18Q88.86 7.28 87.64 7.62 86.42 7.96 85.22 8.28 84.03 8.59 82.78 8.81 81.54 9.03 80.27 8.94L80.27 8.94Q79.88 9.23 79.41 9.4 78.95 9.57 78.56 9.86L78.56 9.86Q76.56 9.57 74.58 9.42 72.6 9.28 70.7 8.74L70.7 8.74Q70.7 8.59 70.6 8.54 70.5 8.5 70.38 8.47 70.26 8.45 70.16 8.37 70.06 8.3 70.16 8.11L70.16 8.11Q69.72 8.25 69.38 8.25L69.38 8.25Q68.89 8.25 68.43 8.01 67.96 7.76 67.45 7.47 66.94 7.18 66.4 6.91 65.86 6.64 65.23 6.64L65.23 6.64Q64.84 6.25 64.52 5.86 64.2 5.47 64.06 4.88L64.06 4.88Q63.86 4.83 63.64 4.88 63.42 4.93 63.28 4.93L63.28 4.93Q62.98 4.93 62.98 4.74L62.98 4.74Q61.96 4 61.52 3.17 61.08 2.34 60.54 1.27L60.54 1.27Q60.4 0.93 60.18 0.71 59.96 0.49 59.86 0.2L59.86 0.2Q59.66-0.29 59.61-0.83 59.57-1.37 59.54-1.88 59.52-2.39 59.39-2.91 59.27-3.42 58.93-3.86L58.93-3.86Q59.03-5.71 59.35-7.57 59.66-9.42 60.15-11.28L60.15-11.28Q60.35-12.11 60.59-12.89 60.83-13.67 61.03-14.5L61.03-14.5Q61.08-14.79 61.2-14.92 61.32-15.04 61.42-15.09L61.42-15.09 61.62-15.23Q61.71-15.33 61.76-15.53L61.76-15.53 62.15-17.19Q62.54-18.8 63.18-20.31 63.81-21.83 64.89-23.1L64.89-23.1Q64.99-24.32 65.45-25.42 65.91-26.51 66.5-27.56 67.08-28.61 67.67-29.64 68.26-30.66 68.6-31.84L68.6-31.84 68.55-31.93Q68.55-32.13 68.77-32.15 68.99-32.18 69.09-32.18L69.09-32.18Q69.14-32.96 69.45-33.52 69.77-34.08 70.14-34.57 70.5-35.06 70.82-35.62 71.14-36.18 71.19-36.96L71.19-36.96Q72.11-37.5 72.77-38.31 73.43-39.11 74.04-39.97 74.65-40.82 75.34-41.63 76.02-42.43 77-42.92L77-42.92Q77.24-43.21 77.14-43.75L77.14-43.75Q78.66-44.87 80.27-45.75 81.88-46.63 83.3-47.8L83.3-47.8 85.05-47.8Q85.69-48.29 86.47-48.29L86.47-48.29Q87.06-48.29 87.62-48.05 88.18-47.8 88.69-47.49 89.2-47.17 89.74-46.85 90.28-46.53 90.82-46.39L90.82-46.39Q91.35-45.65 91.57-44.7 91.79-43.75 92.04-42.92L92.04-42.92Q91.6-41.6 91.5-40.21 91.4-38.82 91.16-37.45L91.16-37.45Q90.82-37.06 90.57-36.6 90.33-36.13 90.06-35.67 89.79-35.21 89.5-34.79 89.2-34.38 88.72-34.13L88.72-34.13Q88.33-32.71 87.5-31.88 86.66-31.05 85.88-29.93L85.88-29.93Q85.15-29.44 84.32-29.44L84.32-29.44Q83.64-29.44 83.1-29.76 82.56-30.08 82.12-30.59 81.68-31.1 81.42-31.71 81.15-32.32 81-32.91L81-32.91Q81.34-33.94 82.1-34.67 82.86-35.4 83.64-36.13 84.42-36.87 85-37.7 85.59-38.53 85.59-39.7L85.59-39.7Q85.59-39.79 85.57-39.89 85.54-39.99 85.54-40.09L85.54-40.09Q85.54-40.28 85.69-40.43 85.83-40.58 85.98-40.67L85.98-40.67 86.27-40.92Q86.42-41.06 86.42-41.26L86.42-41.26Q86.42-41.46 86.23-41.65L86.23-41.65Q84.37-41.5 83.42-41.02 82.47-40.53 81.93-39.94 81.39-39.36 80.98-38.79 80.56-38.23 79.78-37.99L79.78-37.99Q79.63-37.6 79.37-37.33 79.1-37.06 78.8-36.79 78.51-36.52 78.29-36.18 78.07-35.84 78.02-35.35L78.02-35.35 77.14-35.35Q76.95-34.91 76.58-34.5 76.22-34.08 75.85-33.69 75.48-33.3 75.21-32.84 74.95-32.37 75.04-31.84L75.04-31.84Q74.51-31.64 74.24-31.2 73.97-30.76 73.48-30.47L73.48-30.47 73.48-30.18Q73.48-29.79 73.33-29.44 73.19-29.1 73.29-28.71L73.29-28.71Q72.7-28.17 72.43-27.37 72.16-26.56 71.87-25.88L71.87-25.88Q71.19-25.54 70.94-24.95 70.7-24.37 70.7-23.58L70.7-23.58Q69.97-22.85 69.38-21.88 68.79-20.9 68.33-19.87 67.87-18.85 67.48-17.77 67.08-16.7 66.65-15.77L66.65-15.77 66.65-14.36Q65.96-13.57 65.69-12.52 65.42-11.47 64.89-10.64L64.89-10.64Q64.79-10.11 64.81-9.57 64.84-9.03 64.84-8.5L64.84-8.5Q64.84-7.91 64.74-7.28 64.64-6.64 64.4-6.1L64.4-6.1Q64.59-5.37 64.69-4.37 64.79-3.37 65.03-2.37 65.28-1.37 65.72-0.56 66.16 0.24 66.99 0.54L66.99 0.54Q67.18 1.61 67.94 2.17 68.7 2.73 69.67 3.08 70.65 3.42 71.67 3.69 72.7 3.96 73.48 4.39L73.48 4.39Q73.77 4.25 74.16 4.25L74.16 4.25Q74.56 4.25 74.87 4.35 75.19 4.44 75.58 4.54L75.58 4.54Q76.26 4.44 77.27 4.44 78.27 4.44 79.29 4.37 80.32 4.3 81.2 4.1 82.08 3.91 82.61 3.37L82.61 3.37Q82.95 3.37 83.08 3.56 83.2 3.76 83.54 3.76L83.54 3.76Q83.88 3.76 84.57 3.59 85.25 3.42 85.98 3.2 86.71 2.98 87.37 2.73 88.03 2.49 88.33 2.29L88.33 2.29Q88.47 2.34 88.62 2.34L88.62 2.34 88.96 2.34Q89.64 2.34 90.23 2.1 90.82 1.86 91.5 1.95L91.5 1.95Q93.75 0.83 96.06 0.02 98.38-0.78 100.78-1.42L100.78-1.42Q101.07-1.86 101.48-2.05 101.9-2.25 102.39-2.37 102.88-2.49 103.36-2.56 103.85-2.64 104.29-2.78L104.29-2.78Q104.58-2.93 104.8-3.15 105.02-3.37 105.37-3.52L105.37-3.52Q105.71-3.66 106.12-3.71 106.54-3.76 106.95-3.83 107.37-3.91 107.73-4.05 108.1-4.2 108.34-4.54L108.34-4.54Q109.03-4.25 109.74-3.91 110.44-3.56 110.93-2.93L110.93-2.93ZM139.93-3.56L139.93-3.56Q139.79-2.88 139.32-2.47 138.86-2.05 138.22-1.81 137.59-1.56 136.93-1.49 136.27-1.42 135.73-1.42L135.73-1.42Q135.49-1.42 135.27-1.44 135.05-1.46 134.81-1.46L134.81-1.46Q134.56-1.46 134.56-1.22 134.56-0.98 134.32-0.88L134.32-0.88Q134.07-0.98 133.83-1.03 133.59-1.07 133.34-1.07L133.34-1.07Q133-1.07 132.68-1.03 132.37-0.98 132.07-0.98L132.07-0.98Q131.68-0.98 131.51-1.07 131.34-1.17 131.22-1.29 131.1-1.42 130.97-1.56 130.85-1.71 130.61-1.81L130.61-1.81Q130.27-1.95 130.05-1.86 129.83-1.76 129.39-2.15L129.39-2.15Q128.8-2.64 128.39-3.34 127.97-4.05 127.58-4.83 127.19-5.62 126.75-6.4 126.31-7.18 125.72-7.76L125.72-7.76 125.33-7.76Q124.46-7.76 124.11-7.03L124.11-7.03Q123.87-7.18 123.63-7.4 123.38-7.62 123.09-7.76L123.09-7.76Q121.97-7.42 120.74-7.18 119.52-6.93 118.3-6.93L118.3-6.93 117.62-6.93Q117.33-6.93 116.98-7.03L116.98-7.03Q116.5-6.84 116.11-6.57 115.72-6.3 115.23-6.3L115.23-6.3Q114.93-6.3 114.54-6.49L114.54-6.49Q114.25-6.49 114.27-6.25 114.3-6.01 113.96-6.01L113.96-6.01 113.52-6.01Q112.83-6.01 112.18-5.96 111.52-5.91 110.83-5.91L110.83-5.91Q109.9-5.91 108.93-6.15L108.93-6.15Q108.68-6.01 108.39-6.01L108.39-6.01Q108.2-5.91 108.1-5.69 108-5.47 107.9-5.3 107.81-5.13 107.63-5 107.46-4.88 107.17-4.93L107.17-4.93Q107.07-4.35 106.68-4 106.29-3.66 106.29-2.98L106.29-2.98Q105.75-2.69 105.41-2.25 105.07-1.81 104.73-1.32 104.39-0.83 104.02-0.39 103.65 0.05 103.12 0.29L103.12 0.29Q102.87 0.59 102.97 1.22L102.97 1.22Q102.43 1.66 101.65 2 100.87 2.34 100.19 2.34L100.19 2.34Q98.77 2.34 98.23 0.83L98.23 0.83Q98.23 0.34 98.31-0.22 98.38-0.78 98.53-1.29 98.67-1.81 98.97-2.22 99.26-2.64 99.8-2.83L99.8-2.83Q99.8-3.27 99.5-3.44 99.21-3.61 99.26-4.05L99.26-4.05Q100.58-4.69 101.56-5.71 102.53-6.74 103.34-7.89 104.14-9.03 104.97-10.21 105.8-11.38 106.83-12.3L106.83-12.3 106.83-13.33Q108.29-14.89 108.73-16.85L108.73-16.85Q109.27-16.94 109.44-17.33 109.61-17.72 109.61-18.26L109.61-18.26Q109.86-18.26 109.93-18.48 110-18.7 110.34-18.6L110.34-18.6Q110.78-19.78 111.32-20.75 111.86-21.73 112.39-22.73 112.93-23.73 113.35-24.8 113.76-25.88 113.96-27.2L113.96-27.2Q114.64-27.25 114.71-27.86 114.79-28.47 114.89-28.96L114.89-28.96Q115.62-29.64 115.98-30.57 116.35-31.49 116.64-32.5 116.94-33.5 117.3-34.5 117.67-35.5 118.35-36.28L118.35-36.28 118.35-36.43Q118.35-36.67 118.16-36.74 117.96-36.82 117.96-37.06L117.96-37.06Q118.01-37.11 118.01-37.16L118.01-37.16Q118.6-37.4 118.89-37.96 119.18-38.53 119.77-38.77L119.77-38.77Q120.79-37.94 121.57-37.77 122.36-37.6 123.63-37.5L123.63-37.5Q124.26-36.82 124.33-35.86 124.41-34.91 124.65-33.98L124.65-33.98Q125.04-32.42 125.51-30.93 125.97-29.44 126.21-27.88L126.21-27.88Q126.36-26.95 126.75-26.12 127.14-25.29 127.29-24.41L127.29-24.41Q127.39-23.73 127.29-22.88 127.19-22.02 127.48-21.39L127.48-21.39 127.82-20.61Q128.07-20.07 128.24-19.48 128.41-18.9 128.56-18.31L128.56-18.31Q128.95-16.85 129.26-15.16 129.58-13.48 130.27-12.11L130.27-12.11Q130.51-11.62 131.02-11.43 131.54-11.23 132.17-11.16 132.81-11.08 133.42-11.11 134.03-11.13 134.47-11.13L134.47-11.13 134.95-11.13Q135.25-11.13 135.54-11.04L135.54-11.04Q135.73-10.64 135.73-10.35L135.73-10.35Q135.73-9.77 135.34-9.42 134.95-9.08 134.95-8.64L134.95-8.64Q134.95-8.4 135.15-8.11L135.15-8.11Q134.95-8.15 134.56-8.15L134.56-8.15Q133.44-8.15 132.37-7.76L132.37-7.76Q132.76-6.93 133.42-6.37 134.07-5.81 134.81-5.32L134.81-5.32Q135.3-5.71 135.83-5.71L135.83-5.71Q136.42-5.71 136.93-5.44 137.44-5.18 138.03-5.18L138.03-5.18Q138.47-5.18 138.66-5.32L138.66-5.32Q139.06-4.88 139.3-4.42 139.54-3.96 139.93-3.56ZM124.65-11.38L124.65-11.38Q124.55-12.21 124.33-12.57 124.11-12.94 123.97-13.48L123.97-13.48Q123.77-14.16 123.7-14.94 123.63-15.72 123.48-16.46L123.48-16.46Q123.14-18.12 122.72-19.78 122.31-21.44 121.67-23L121.67-23Q121.87-23.29 121.87-23.54L121.87-23.54 121.87-23.68Q121.43-24.17 121.23-24.88 121.04-25.59 120.87-26.29 120.7-27 120.43-27.61 120.16-28.22 119.57-28.61L119.57-28.61Q119.43-28.32 119.43-27.93L119.43-27.93Q119.43-27.59 119.5-27.29 119.57-27 119.57-26.66L119.57-26.66Q119.08-26.42 118.86-25.9 118.64-25.39 118.16-25.1L118.16-25.1Q117.77-23.54 117.03-22.14 116.3-20.75 115.5-19.38 114.69-18.02 113.96-16.63 113.22-15.23 112.79-13.72L112.79-13.72Q112.15-13.28 111.93-12.6 111.71-11.91 111.71-11.23L111.71-11.23Q112.15-10.99 112.71-10.96 113.27-10.94 113.81-10.94 114.35-10.94 114.84-10.84 115.32-10.74 115.72-10.35L115.72-10.35Q116.35-10.55 117.11-10.62 117.86-10.69 118.35-11.04L118.35-11.04Q119.33-10.69 120.45-10.69L120.45-10.69Q121.04-10.69 121.6-10.79 122.16-10.89 122.7-11.04L122.7-11.04Q123.14-10.94 123.38-10.72 123.63-10.5 124.11-10.55L124.11-10.55Q124.36-10.74 124.41-10.96 124.46-11.18 124.65-11.38ZM179.87-31.54L179.87-31.54Q179.87-31.25 179.6-31.05 179.34-30.86 179.02-30.66 178.7-30.47 178.38-30.22 178.07-29.98 177.97-29.64L177.97-29.64 177.53-29.64Q177.24-29.64 177.24-29.44L177.24-29.44 177.09-29.44Q176.65-29.44 176.5-29.71 176.36-29.98 175.87-29.98L175.87-29.98Q174.65-29.98 173.45-29.96 172.26-29.93 171.03-29.88L171.03-29.88Q167.67-29.88 164.42-29.66 161.17-29.44 158-28.27L158-28.27Q157.9-28.22 157.75-28.22L157.75-28.22Q157.51-28.22 157.49-28.42 157.46-28.61 157.22-28.61L157.22-28.61Q156.53-28.61 155.95-28.47 155.36-28.32 154.68-28.27L154.68-28.27Q153.9-27.59 152.9-27.15 151.89-26.71 150.84-26.29 149.79-25.88 148.82-25.42 147.84-24.95 147.11-24.22L147.11-24.22Q147.21-23.63 147.28-23.07 147.35-22.51 147.35-21.97L147.35-21.97Q147.35-19.87 146.96-17.85 146.57-15.82 146.57-13.77L146.57-13.77 146.57-13.04Q146.57-12.7 146.62-12.3L146.62-12.3Q146.72-12.06 146.99-11.99 147.26-11.91 147.45-11.77L147.45-11.77Q148.09-12.21 148.74-12.48 149.4-12.74 150.11-13.01 150.82-13.28 151.48-13.55 152.14-13.82 152.77-14.21L152.77-14.21 154.14-14.21Q154.68-14.6 155.41-14.79 156.14-14.99 156.39-15.67L156.39-15.67Q156.48-15.58 156.58-15.58L156.58-15.58 156.78-15.58Q157.36-15.58 157.97-15.82 158.58-16.06 159.22-16.33 159.85-16.6 160.49-16.85 161.12-17.09 161.81-17.09L161.81-17.09Q161.95-17.09 162.07-17.07 162.2-17.04 162.34-17.04L162.34-17.04Q162.64-17.53 163.17-17.8 163.71-18.07 164.3-18.26 164.88-18.46 165.49-18.65 166.1-18.85 166.54-19.14L166.54-19.14 166.74-19.14Q167.03-19.14 167.2-19.02 167.37-18.9 167.62-18.8L167.62-18.8Q168.98-19.68 170.42-19.7 171.87-19.73 173.43-19.87L173.43-19.87Q173.77-19.29 174.04-18.92 174.31-18.55 174.31-17.87L174.31-17.87Q174.31-17.53 174.26-17.38L174.26-17.38Q173.72-17.19 173.43-17.04L173.43-17.04 172.89-16.75Q172.65-16.65 172.3-16.58 171.96-16.5 171.33-16.5L171.33-16.5Q170.94-16.5 170.99-16.28 171.03-16.06 170.74-16.02L170.74-16.02Q170.06-15.77 169.37-15.63 168.69-15.48 168.01-15.23L168.01-15.23Q166.59-14.79 165.2-14.28 163.81-13.77 162.34-13.48L162.34-13.48Q161.12-12.5 159.71-11.89 158.29-11.28 156.78-10.89L156.78-10.89Q155.17-9.72 153.6-8.72 152.04-7.71 150.09-7.03L150.09-7.03Q149.84-6.79 149.5-6.59 149.16-6.4 149.06-6.01L149.06-6.01Q148.96-6.01 148.84-6.03 148.72-6.05 148.57-6.05L148.57-6.05Q147.89-6.05 147.52-5.74 147.16-5.42 146.62-5.32L146.62-5.32Q146.38-4.59 146.38-4.05L146.38-4.05Q146.38-3.37 146.62-2.83 146.87-2.29 147.23-1.81 147.6-1.32 148.01-0.85 148.43-0.39 148.72 0.15L148.72 0.15Q148.62 0.73 148.35 1.1 148.09 1.46 147.74 1.78 147.4 2.1 147.08 2.44 146.77 2.78 146.62 3.32L146.62 3.32Q145.74 3.47 144.91 3.47L144.91 3.47Q144.37 3.47 143.81 3.34 143.25 3.22 142.76 2.93L142.76 2.93Q141.98 1.86 141.66 0.63 141.35-0.59 140.81-1.81L140.81-1.81 140.86-2.15Q140.86-3.22 140.49-4.03 140.13-4.83 139.39-5.66L139.39-5.66Q139.44-5.76 139.44-6.01L139.44-6.01Q139.44-6.64 139.05-7.18L139.05-7.18Q139.15-8.3 139.66-8.94 140.18-9.57 140.81-10.35L140.81-10.35 140.81-10.94Q140.81-13.04 141.18-15.06 141.54-17.09 141.54-19.14L141.54-19.14Q141.54-20.41 141.35-21.39L141.35-21.39Q141.2-21.44 140.96-21.44L140.96-21.44Q140.71-21.44 140.57-21.31 140.42-21.19 140.32-21.04 140.22-20.9 140.1-20.75 139.98-20.61 139.74-20.56L139.74-20.56Q138.91-20.7 138.66-21.34 138.42-21.97 138.42-22.75L138.42-22.75Q138.42-23.19 138.47-23.63 138.52-24.07 138.56-24.56L138.56-24.56Q140.42-26.61 143.01-28.37 145.6-30.13 148.13-31.2L148.13-31.2Q148.28-31.25 148.48-31.25L148.48-31.25Q148.67-31.25 148.82-31.18 148.96-31.1 149.16-31.1L149.16-31.1Q149.31-31.1 149.4-31.2L149.4-31.2Q149.89-31.2 150.09-31.49 150.28-31.79 150.62-32.08L150.62-32.08Q150.97-31.84 151.21-31.84L151.21-31.84Q151.7-31.84 152.19-32.28 152.68-32.71 153.26-32.81L153.26-32.81Q155.51-33.2 157.68-33.45 159.85-33.69 162-34.57L162-34.57Q162.49-34.33 162.98-34.28 163.47-34.23 163.95-34.23L163.95-34.23Q164.49-34.23 165.15-34.35 165.81-34.47 166.2-34.91L166.2-34.91Q167.76-34.72 169.55-34.77 171.33-34.81 173.11-34.72 174.89-34.62 176.55-34.23 178.21-33.84 179.48-32.81L179.48-32.81Q179.58-32.47 179.73-32.18 179.87-31.88 179.87-31.54ZM207.9-31.05L207.9-31.05 207.9-30.86Q207.56-30.76 207.56-30.37L207.56-30.37Q207.02-30.13 206.43-30 205.85-29.88 205.31-29.64L205.31-29.64Q204.77-29.69 204.21-29.71 203.65-29.74 203.11-29.74L203.11-29.74Q201.65-29.74 200.18-29.64 198.72-29.54 197.25-29.64L197.25-29.64Q196.57-29.25 195.76-29.03 194.96-28.81 194.23-28.81L194.23-28.81Q193.64-28.81 193.2-28.96L193.2-28.96Q192.03-28.37 190.64-27.98 189.25-27.59 187.83-27.22 186.41-26.86 185.12-26.39 183.83-25.93 182.85-25.1L182.85-25.1Q182.75-24.41 182.7-23.75 182.65-23.1 182.65-22.46L182.65-22.46Q182.65-21.78 182.73-21.19 182.8-20.61 183.04-20.02L183.04-20.02Q183.29-19.92 183.61-19.87 183.92-19.82 184.17-19.82L184.17-19.82Q184.41-19.82 184.66-19.9 184.9-19.97 185-20.21L185-20.21Q185.73-20.31 186.46-20.29 187.19-20.26 187.93-20.26L187.93-20.26Q188.66-20.26 189.37-20.31 190.08-20.36 190.76-20.56L190.76-20.56Q191.54-20.75 192.3-20.8 193.05-20.85 193.79-20.9 194.52-20.95 195.3-21.07 196.08-21.19 196.91-21.58L196.91-21.58Q197.55-21.34 198.21-21.34 198.86-21.34 199.5-21.24L199.5-21.24Q199.84-21 200.06-20.7 200.28-20.41 200.28-20.02L200.28-20.02Q200.28-19.34 199.79-18.65 199.3-17.97 199.01-17.38L199.01-17.38 198.47-17.38Q197.3-17.38 196.2-17.07 195.1-16.75 194.01-16.33 192.91-15.92 191.81-15.6 190.71-15.28 189.54-15.28L189.54-15.28Q189.34-15.28 189.32-15.06 189.29-14.84 189.2-14.75L189.2-14.75Q188.95-14.79 188.46-14.79L188.46-14.79Q187.34-14.79 186.32-14.55 185.29-14.31 184.22-14.31L184.22-14.31Q183.92-14.31 183.63-14.33 183.34-14.36 183.04-14.4L183.04-14.4Q182.8-14.01 182.41-13.89 182.02-13.77 181.68-13.48L181.68-13.48Q181.53-13.04 181.51-12.4 181.48-11.77 181.46-11.11 181.43-10.45 181.34-9.86 181.24-9.28 180.94-8.94L180.94-8.94Q180.99-8.69 181.34-8.76 181.68-8.84 181.68-8.45L181.68-8.45Q181.68-8.01 181.58-7.52 181.48-7.03 181.48-6.54L181.48-6.54Q181.48-5.62 181.7-4.52 181.92-3.42 182.38-2.49 182.85-1.56 183.63-0.95 184.41-0.34 185.58-0.34L185.58-0.34Q186.36-0.34 187.05-0.63 187.73-0.93 188.17-1.61L188.17-1.61 188.42-1.66Q188.61-1.66 188.78-1.61 188.95-1.56 189.15-1.56L189.15-1.56Q189.44-1.56 189.9-1.93 190.37-2.29 190.93-2.78 191.49-3.27 192.08-3.74 192.66-4.2 193.2-4.39L193.2-4.39Q193.54-5.08 193.86-5.76 194.18-6.45 194.81-6.84L194.81-6.84 194.81-8.25Q195.3-8.79 195.86-9.23 196.42-9.67 196.72-10.35L196.72-10.35Q196.96-10.25 197.18-10.21 197.4-10.16 197.64-10.16L197.64-10.16Q197.89-10.16 198.16-10.21 198.43-10.25 198.67-10.35L198.67-10.35Q199.06-9.81 199.28-9.16 199.5-8.5 199.84-7.91L199.84-7.91Q199.4-7.03 198.82-5.81 198.23-4.59 197.55-3.37 196.86-2.15 196.11-1.05 195.35 0.05 194.62 0.63L194.62 0.63Q194.47 0.78 193.98 0.98L193.98 0.98Q193.44 1.37 193.01 1.73 192.57 2.1 192.18 2.59L192.18 2.59Q190.76 3.03 189.47 3.76 188.17 4.49 186.9 5.18L186.9 5.18Q186.32 5.03 185.63 5.03L185.63 5.03Q185.05 5.03 184.46 5.1 183.87 5.18 183.19 5.18L183.19 5.18Q183 4.93 182.63 4.86 182.26 4.79 182.36 4.35L182.36 4.35Q180.7 4.25 179.68 3.44 178.65 2.64 177.94 1.46 177.23 0.29 176.79-1.07 176.35-2.44 175.87-3.71L175.87-3.71 175.87-3.86Q175.87-4.1 176.06-4.15 176.26-4.2 176.26-4.44L176.26-4.44Q176.26-4.54 176.21-4.59L176.21-4.59Q176.06-5.13 175.96-5.52 175.87-5.91 175.87-6.45L175.87-6.45Q175.87-7.23 175.96-7.98 176.06-8.74 176.06-9.52L176.06-9.52Q176.06-10.3 175.87-10.89L175.87-10.89Q176.06-11.13 176.18-11.55 176.31-11.96 176.35-12.4 176.4-12.84 176.43-13.28 176.45-13.72 176.55-14.06L176.55-14.06Q176.35-14.6 176.21-15.01 176.06-15.43 176.06-16.02L176.06-16.02 176.06-16.36Q176.55-17.19 176.89-18.07 177.23-18.95 177.62-19.87L177.62-19.87 177.62-20.02Q177.62-21.44 177.53-22.85 177.43-24.27 177.43-25.68L177.43-25.68 177.43-26.61Q177.43-27.1 177.48-27.54L177.48-27.54Q177.87-27.73 178.06-28.08 178.26-28.42 178.65-28.61L178.65-28.61 180.26-28.61 180.55-29.1Q180.7-29.35 180.75-29.64L180.75-29.64Q181.29-29.79 181.8-30.05 182.31-30.32 182.75-30.62L182.75-30.62Q183.43-31.01 184-31.32 184.56-31.64 185.12-31.86 185.68-32.08 186.32-32.23 186.95-32.37 187.78-32.47L187.78-32.47Q188.17-32.47 188.29-32.62 188.42-32.76 188.66-32.96L188.66-32.96Q189.25-32.86 189.83-32.79 190.42-32.71 191-32.71L191-32.71Q192.18-32.71 193.2-33.15L193.2-33.15Q194.67-33.15 196.11-33.2 197.55-33.25 199.01-33.25L199.01-33.25Q200.28-33.25 201.55-33.15 202.82-33.06 204.04-32.81L204.04-32.81Q204.48-32.96 205.02-32.96L205.02-32.96Q205.6-32.96 206.21-32.84 206.82-32.71 207.41-32.81L207.41-32.81Q207.46-32.28 207.68-31.91 207.9-31.54 207.9-31.05Z" opacity="1" transform="matrix(1,0,0,1,0,0)" fill="#4790fc" class="undefined-text-0" data-fill-palette-color="primary" id="text-0"></path></svg></g></svg></g></svg></g></svg></g><g transform="matrix(1,0,0,1,41.12742364187456,0)"><svg viewBox="0 0 77.74515271625089 77.74515271625089" height="77.74515271625089" width="77.74515271625089"><g><svg xmlns="http://www.w3.org/2000/svg" xmlns:xlink="http://www.w3.org/1999/xlink" version="1.1" x="0" y="0" viewBox="5 5 90 90" enable-background="new 0 0 100 100" xml:space="preserve" height="77.74515271625089" width="77.74515271625089" class="icon-icon-0" data-fill-palette-color="accent" id="icon-0"><path d="M12.6 67L12.6 67c0 0.1 0 0.2 0 0.3 0 0.1 0 0.1 0 0.2 0 0 0 0 0 0 0 0.2 0 0.3 0.1 0.5 0 0 0 0 0 0 0 0.2 0.1 0.3 0.1 0.5 0 0.1 0.1 0.2 0.1 0.3 0 0.1 0.1 0.1 0.1 0.2C13 69 13 69 13.1 69.1c0 0.1 0.1 0.1 0.1 0.2 0.1 0.1 0.1 0.1 0.2 0.2 0.1 0 0.1 0.1 0.2 0.1 0.3 0.2 0.6 0.3 0.9 0.4 0 0 0 0 0 0 0.1 0 0.2 0 0.3 0 0 0 0.1 0 0.1 0h8L25 80.5c0.2 1.2 1.3 2 2.4 2 0.2 0 0.3 0 0.5 0 1.4-0.3 2.2-1.6 2-2.9L27.5 67c-0.2-1.2-1.3-2-2.5-2h-7l1.2-5.8 4.4 2.9c0.4 0.3 0.9 0.4 1.4 0.4h5c1.4 0 2.5-1.1 2.5-2.5s-1.1-2.5-2.5-2.5h-4.2l-6.8-4.6c0 0 0 0 0 0l0 0c0 0-0.1 0-0.1-0.1-0.1-0.1-0.2-0.1-0.3-0.2-0.1 0-0.2-0.1-0.3-0.1 0 0-0.1 0-0.1 0 0 0 0 0 0 0-0.1 0-0.3 0-0.4 0-0.3 0-0.7 0.1-1 0.2 0 0 0 0 0 0-0.1 0.1-0.3 0.1-0.4 0.2 0 0 0 0 0 0-0.3 0.2-0.5 0.4-0.7 0.7 0 0 0 0 0 0 0 0 0 0 0 0-0.1 0.1-0.1 0.2-0.2 0.4 0 0.1-0.1 0.2-0.1 0.3 0 0.1 0 0.1 0 0.1l0 0c0 0 0 0 0 0L12.6 67C12.6 67 12.6 67 12.6 67z" fill="#3d7af0" data-fill-palette-color="accent"></path><path d="M7.5 85c1.4 0 2.5-1.1 2.5-2.5v-5h7.5v5c0 1.4 1.1 2.5 2.5 2.5s2.5-1.1 2.5-2.5V75c0-1.4-1.1-2.5-2.5-2.5H10v-15c0-1.4-1.1-2.5-2.5-2.5S5 56.1 5 57.5V75v7.5C5 83.9 6.1 85 7.5 85z" fill="#3d7af0" data-fill-palette-color="accent"></path><path d="M60 85c1.4 0 2.5-1.1 2.5-2.5v-15H65c1.4 0 2.5-1.1 2.5-2.5s-1.1-2.5-2.5-2.5H35c-1.4 0-2.5 1.1-2.5 2.5s1.1 2.5 2.5 2.5h2.5v15c0 1.4 1.1 2.5 2.5 2.5s2.5-1.1 2.5-2.5v-15h15v15C57.5 83.9 58.6 85 60 85z" fill="#3d7af0" data-fill-palette-color="accent"></path><path d="M70 57.5c-1.4 0-2.5 1.1-2.5 2.5s1.1 2.5 2.5 2.5h5c0.5 0 1-0.1 1.4-0.4l4.4-2.9L82 65h-7c-1.2 0-2.2 0.8-2.5 2L70 79.5c-0.3 1.4 0.6 2.7 2 2.9 0.2 0 0.3 0 0.5 0 1.2 0 2.2-0.8 2.4-2L77 70h8c0 0 0.1 0 0.1 0 0.1 0 0.2 0 0.3 0 0 0 0 0 0 0 0.3-0.1 0.6-0.2 0.9-0.4 0.1 0 0.1-0.1 0.2-0.1 0.1-0.1 0.1-0.1 0.2-0.2 0-0.1 0.1-0.1 0.1-0.2C87 69 87 69 87.1 68.9c0-0.1 0.1-0.1 0.1-0.2 0-0.1 0.1-0.2 0.1-0.3 0.1-0.1 0.1-0.3 0.1-0.5 0 0 0 0 0 0 0-0.2 0.1-0.3 0.1-0.5 0 0 0 0 0 0 0-0.1 0-0.1 0-0.2 0-0.1 0-0.2 0-0.3l0 0c0 0 0 0 0 0L85 54.5c0 0 0 0 0 0l0 0c0 0 0-0.1 0-0.1 0-0.1-0.1-0.2-0.1-0.3 0-0.1-0.1-0.2-0.2-0.3 0 0 0-0.1 0-0.1 0 0 0 0 0 0-0.2-0.3-0.4-0.5-0.7-0.7 0 0-0.1 0-0.1-0.1-0.1-0.1-0.2-0.1-0.3-0.2 0 0-0.1 0-0.1 0-0.1 0-0.2-0.1-0.3-0.1 0 0-0.1 0-0.1 0-0.1 0-0.3 0-0.4 0-0.2 0-0.3 0-0.5 0 0 0 0 0 0 0 0 0-0.1 0-0.1 0-0.1 0-0.2 0.1-0.3 0.1-0.1 0-0.2 0.1-0.3 0.2 0 0-0.1 0-0.1 0.1l0 0c0 0 0 0 0 0l-6.8 4.6H70z" fill="#3d7af0" data-fill-palette-color="accent"></path><path d="M92.5 55c-1.4 0-2.5 1.1-2.5 2.5v15H80c-1.4 0-2.5 1.1-2.5 2.5v7.5c0 1.4 1.1 2.5 2.5 2.5s2.5-1.1 2.5-2.5v-5H90v5c0 1.4 1.1 2.5 2.5 2.5s2.5-1.1 2.5-2.5V75 57.5C95 56.1 93.9 55 92.5 55z" fill="#3d7af0" data-fill-palette-color="accent"></path><path d="M20 50c2.8 0 5-2.2 5-5s-2.2-5-5-5-5 2.2-5 5S17.2 50 20 50z" fill="#3d7af0" data-fill-palette-color="accent"></path><path d="M85 45c0-2.8-2.2-5-5-5s-5 2.2-5 5 2.2 5 5 5S85 47.8 85 45z" fill="#3d7af0" data-fill-palette-color="accent"></path><path d="M92.5 90h-85C6.1 90 5 91.1 5 92.5S6.1 95 7.5 95h85c1.4 0 2.5-1.1 2.5-2.5S93.9 90 92.5 90z" fill="#3d7af0" data-fill-palette-color="accent"></path><path d="M92.5 5h-85C6.1 5 5 6.1 5 7.5S6.1 10 7.5 10h40v9l-9.3 9.3c-0.7 0.7-0.9 1.8-0.5 2.7 0.4 0.9 1.3 1.5 2.3 1.5h7.5c0 1.4 1.1 2.5 2.5 2.5s2.5-1.1 2.5-2.5H60c1 0 1.9-0.6 2.3-1.5 0.4-0.9 0.2-2-0.5-2.7L52.5 19v-9h40c1.4 0 2.5-1.1 2.5-2.5S93.9 5 92.5 5zM54 27.5H46l4-4L54 27.5z" fill="#3d7af0" data-fill-palette-color="accent"></path></svg></g></svg></g><g></g></svg></g></svg></g></svg></g></svg></g><defs></defs></svg><rect width="320" height="360" fill="none" stroke="none" visibility="hidden"></rect></g></svg></g></svg>